REM DIRINDEX 1\2,1\3
REM DIRNAME cjc133,folder01,folder02
TITLE ""
FILE "DISC1Track22.mp3" MP3
  TRACK 01 AUDIO
    TITLE "0:"
    INDEX 01 00:00:00
  TRACK 02 AUDIO
    TITLE "3:cjc133_0968"
    INDEX 01 00:00:15
  TRACK 03 AUDIO
    TITLE "0:"
    INDEX 01 00:01:30
  TRACK 04 AUDIO
    TITLE "2:cjc133_0969"
    INDEX 01 00:01:71
  TRACK 05 AUDIO
    TITLE "2:cjc133_0970"
    INDEX 01 00:05:09
  TRACK 06 AUDIO
    TITLE "2:cjc133_0971"
    INDEX 01 00:08:17
  TRACK 07 AUDIO
    TITLE "0:"
    INDEX 01 00:10:29
  TRACK 08 AUDIO
    TITLE "2:cjc133_0972"
    INDEX 01 00:11:07
  TRACK 09 AUDIO
    TITLE "2:cjc133_0973"
    INDEX 01 00:13:63
  TRACK 10 AUDIO
    TITLE "2:cjc133_0974"
    INDEX 01 00:17:70
  TRACK 11 AUDIO
    TITLE "0:"
    INDEX 01 00:21:08
  TRACK 12 AUDIO
    TITLE "2:cjc133_0975"
    INDEX 01 00:21:57
  TRACK 13 AUDIO
    TITLE "2:cjc133_0976"
    INDEX 01 00:23:32
  TRACK 14 AUDIO
    TITLE "2:cjc133_0977"
    INDEX 01 00:27:30
  TRACK 15 AUDIO
    TITLE "0:"
    INDEX 01 00:30:32
  TRACK 16 AUDIO
    TITLE "2:cjc133_0978"
    INDEX 01 00:31:10
  TRACK 17 AUDIO
    TITLE "2:cjc133_0979"
    INDEX 01 00:35:15
  TRACK 18 AUDIO
    TITLE "2:cjc133_0980"
    INDEX 01 00:39:11
  TRACK 19 AUDIO
    TITLE "0:"
    INDEX 01 00:42:08
  TRACK 20 AUDIO
    TITLE "2:cjc133_0981"
    INDEX 01 00:42:63
  TRACK 21 AUDIO
    TITLE "2:cjc133_0982"
    INDEX 01 00:45:45
  TRACK 22 AUDIO
    TITLE "2:cjc133_0983"
    INDEX 01 00:50:70
  TRACK 23 AUDIO
    TITLE "0:"
    INDEX 01 00:55:30
  TRACK 24 AUDIO
    TITLE "2:cjc133_0984"
    INDEX 01 00:56:04
  TRACK 25 AUDIO
    TITLE "2:cjc133_0985"
    INDEX 01 00:57:03
  TRACK 26 AUDIO
    TITLE "2:cjc133_0986"
    INDEX 01 01:01:50
  TRACK 27 AUDIO
    TITLE "0:"
    INDEX 01 01:05:32
  TRACK 28 AUDIO
    TITLE "2:cjc133_0987"
    INDEX 01 01:06:08
  TRACK 29 AUDIO
    TITLE "2:cjc133_0988"
    INDEX 01 01:09:42
  TRACK 30 AUDIO
    TITLE "2:cjc133_0989"
    INDEX 01 01:13:02
  TRACK 31 AUDIO
    TITLE "0:"
    INDEX 01 01:15:44
  TRACK 32 AUDIO
    TITLE "2:cjc133_0990"
    INDEX 01 01:16:18
  TRACK 33 AUDIO
    TITLE "2:cjc133_0991"
    INDEX 01 01:17:39
  TRACK 34 AUDIO
    TITLE "2:cjc133_0992"
    INDEX 01 01:20:73
  TRACK 35 AUDIO
    TITLE "0:"
    INDEX 01 01:23:38
  TRACK 36 AUDIO
    TITLE "2:cjc133_0993"
    INDEX 01 01:24:16
  TRACK 37 AUDIO
    TITLE "2:cjc133_0994"
    INDEX 01 01:27:06
  TRACK 38 AUDIO
    TITLE "2:cjc133_0995"
    INDEX 01 01:31:00
  TRACK 39 AUDIO
    TITLE "0:"
    INDEX 01 01:34:05
  TRACK 40 AUDIO
    TITLE "2:cjc133_0996"
    INDEX 01 01:34:52
  TRACK 41 AUDIO
    TITLE "2:cjc133_0997"
    INDEX 01 01:39:33
  TRACK 42 AUDIO
    TITLE "2:cjc133_0998"
    INDEX 01 01:43:51
  TRACK 43 AUDIO
    TITLE "0:"
    INDEX 01 01:46:70
  TRACK 44 AUDIO
    TITLE "2:cjc133_0999"
    INDEX 01 01:47:48
  TRACK 45 AUDIO
    TITLE "2:cjc133_1000"
    INDEX 01 01:48:61
  TRACK 46 AUDIO
    TITLE "2:cjc133_1001"
    INDEX 01 01:52:69
  TRACK 47 AUDIO
    TITLE "0:"
    INDEX 01 01:56:14
  TRACK 48 AUDIO
    TITLE "2:cjc133_1002"
    INDEX 01 01:56:59
  TRACK 49 AUDIO
    TITLE "2:cjc133_1003"
    INDEX 01 01:57:60
  TRACK 50 AUDIO
    TITLE "2:cjc133_1004"
    INDEX 01 02:01:41
  TRACK 51 AUDIO
    TITLE "0:"
    INDEX 01 02:04:35
  TRACK 52 AUDIO
    TITLE "2:cjc133_1005"
    INDEX 01 02:05:11
  TRACK 53 AUDIO
    TITLE "2:cjc133_1006"
    INDEX 01 02:08:74
  TRACK 54 AUDIO
    TITLE "2:cjc133_1007"
    INDEX 01 02:13:22
  TRACK 55 AUDIO
    TITLE "0:"
    INDEX 01 02:16:50
  TRACK 56 AUDIO
    TITLE "2:cjc133_1008"
    INDEX 01 02:17:32
  TRACK 57 AUDIO
    TITLE "2:cjc133_1009"
    INDEX 01 02:19:44
  TRACK 58 AUDIO
    TITLE "2:cjc133_1010"
    INDEX 01 02:22:74
  TRACK 59 AUDIO
    TITLE "0:"
    INDEX 01 02:25:35
  TRACK 60 AUDIO
    TITLE "2:cjc133_1011"
    INDEX 01 02:26:05
  TRACK 61 AUDIO
    TITLE "2:cjc133_1012"
    INDEX 01 02:27:05
  TRACK 62 AUDIO
    TITLE "2:cjc133_1013"
    INDEX 01 02:30:19
  TRACK 63 AUDIO
    TITLE "0:"
    INDEX 01 02:32:35
